<mxfile host="app.diagrams.net" modified="2023-05-30T06:35:00.289Z" agent="Mozilla/5.0 (Windows NT 10.0; Win64; x64) AppleWebKit/537.36 (KHTML, like Gecko) Chrome/113.0.0.0 Safari/537.36 Edg/113.0.1774.57" etag="zvsTgBF72Wv-CMiDqTbe" version="21.3.4" type="github">
  <diagram id="R2lEEEUBdFMjLlhIrx00" name="Page-1">
    <mxGraphModel dx="1236" dy="590" grid="1" gridSize="10" guides="1" tooltips="1" connect="1" arrows="1" fold="1" page="1" pageScale="1" pageWidth="850" pageHeight="1100" math="0" shadow="0" extFonts="Permanent Marker^https://fonts.googleapis.com/css?family=Permanent+Marker">
      <root>
        <mxCell id="0" />
        <mxCell id="1" parent="0" />
        <mxCell id="WLKQ_UbRHuhdr7FNFKrX-1" value="歌手" style="rounded=0;whiteSpace=wrap;html=1;" vertex="1" parent="1">
          <mxGeometry x="370" y="110" width="70" height="40" as="geometry" />
        </mxCell>
        <mxCell id="WLKQ_UbRHuhdr7FNFKrX-2" value="后台管理员" style="rounded=0;whiteSpace=wrap;html=1;" vertex="1" parent="1">
          <mxGeometry x="370" y="260" width="70" height="40" as="geometry" />
        </mxCell>
        <mxCell id="WLKQ_UbRHuhdr7FNFKrX-3" value="歌曲" style="rounded=0;whiteSpace=wrap;html=1;" vertex="1" parent="1">
          <mxGeometry x="370" y="420" width="70" height="40" as="geometry" />
        </mxCell>
        <mxCell id="WLKQ_UbRHuhdr7FNFKrX-4" value="前台用户" style="rounded=0;whiteSpace=wrap;html=1;" vertex="1" parent="1">
          <mxGeometry x="130" y="260" width="70" height="40" as="geometry" />
        </mxCell>
        <mxCell id="WLKQ_UbRHuhdr7FNFKrX-5" value="歌单" style="rounded=0;whiteSpace=wrap;html=1;" vertex="1" parent="1">
          <mxGeometry x="600" y="260" width="70" height="40" as="geometry" />
        </mxCell>
        <mxCell id="WLKQ_UbRHuhdr7FNFKrX-6" value="管理" style="shape=rhombus;perimeter=rhombusPerimeter;whiteSpace=wrap;html=1;align=center;" vertex="1" parent="1">
          <mxGeometry x="360" y="340" width="90" height="50" as="geometry" />
        </mxCell>
        <mxCell id="WLKQ_UbRHuhdr7FNFKrX-7" value="管理" style="shape=rhombus;perimeter=rhombusPerimeter;whiteSpace=wrap;html=1;align=center;" vertex="1" parent="1">
          <mxGeometry x="470" y="255" width="90" height="50" as="geometry" />
        </mxCell>
        <mxCell id="WLKQ_UbRHuhdr7FNFKrX-8" value="管理" style="shape=rhombus;perimeter=rhombusPerimeter;whiteSpace=wrap;html=1;align=center;" vertex="1" parent="1">
          <mxGeometry x="240" y="257.5" width="90" height="45" as="geometry" />
        </mxCell>
        <mxCell id="WLKQ_UbRHuhdr7FNFKrX-9" value="管理" style="shape=rhombus;perimeter=rhombusPerimeter;whiteSpace=wrap;html=1;align=center;" vertex="1" parent="1">
          <mxGeometry x="360" y="180" width="90" height="50" as="geometry" />
        </mxCell>
        <mxCell id="WLKQ_UbRHuhdr7FNFKrX-10" value="" style="endArrow=none;html=1;rounded=0;exitX=1;exitY=0.5;exitDx=0;exitDy=0;entryX=0;entryY=0.5;entryDx=0;entryDy=0;" edge="1" parent="1" source="WLKQ_UbRHuhdr7FNFKrX-8" target="WLKQ_UbRHuhdr7FNFKrX-2">
          <mxGeometry relative="1" as="geometry">
            <mxPoint x="350" y="330" as="sourcePoint" />
            <mxPoint x="510" y="330" as="targetPoint" />
          </mxGeometry>
        </mxCell>
        <mxCell id="WLKQ_UbRHuhdr7FNFKrX-11" value="1" style="resizable=0;html=1;whiteSpace=wrap;align=right;verticalAlign=bottom;" connectable="0" vertex="1" parent="WLKQ_UbRHuhdr7FNFKrX-10">
          <mxGeometry x="1" relative="1" as="geometry">
            <mxPoint x="-10" as="offset" />
          </mxGeometry>
        </mxCell>
        <mxCell id="WLKQ_UbRHuhdr7FNFKrX-14" value="" style="endArrow=none;html=1;rounded=0;entryX=1;entryY=0.5;entryDx=0;entryDy=0;exitX=0;exitY=0.5;exitDx=0;exitDy=0;" edge="1" parent="1" source="WLKQ_UbRHuhdr7FNFKrX-8" target="WLKQ_UbRHuhdr7FNFKrX-4">
          <mxGeometry relative="1" as="geometry">
            <mxPoint x="60" y="400" as="sourcePoint" />
            <mxPoint x="220" y="400" as="targetPoint" />
          </mxGeometry>
        </mxCell>
        <mxCell id="WLKQ_UbRHuhdr7FNFKrX-15" value="N" style="resizable=0;html=1;whiteSpace=wrap;align=right;verticalAlign=bottom;" connectable="0" vertex="1" parent="WLKQ_UbRHuhdr7FNFKrX-14">
          <mxGeometry x="1" relative="1" as="geometry">
            <mxPoint x="20" as="offset" />
          </mxGeometry>
        </mxCell>
        <mxCell id="WLKQ_UbRHuhdr7FNFKrX-16" value="" style="endArrow=none;html=1;rounded=0;entryX=1;entryY=0.5;entryDx=0;entryDy=0;exitX=0;exitY=0.5;exitDx=0;exitDy=0;" edge="1" parent="1" source="WLKQ_UbRHuhdr7FNFKrX-7" target="WLKQ_UbRHuhdr7FNFKrX-2">
          <mxGeometry relative="1" as="geometry">
            <mxPoint x="480" y="310" as="sourcePoint" />
            <mxPoint x="640" y="310" as="targetPoint" />
          </mxGeometry>
        </mxCell>
        <mxCell id="WLKQ_UbRHuhdr7FNFKrX-17" value="1" style="resizable=0;html=1;whiteSpace=wrap;align=right;verticalAlign=bottom;" connectable="0" vertex="1" parent="WLKQ_UbRHuhdr7FNFKrX-16">
          <mxGeometry x="1" relative="1" as="geometry">
            <mxPoint x="20" as="offset" />
          </mxGeometry>
        </mxCell>
        <mxCell id="WLKQ_UbRHuhdr7FNFKrX-18" value="" style="endArrow=none;html=1;rounded=0;exitX=1;exitY=0.5;exitDx=0;exitDy=0;entryX=0;entryY=0.5;entryDx=0;entryDy=0;" edge="1" parent="1" source="WLKQ_UbRHuhdr7FNFKrX-7" target="WLKQ_UbRHuhdr7FNFKrX-5">
          <mxGeometry relative="1" as="geometry">
            <mxPoint x="480" y="380" as="sourcePoint" />
            <mxPoint x="640" y="380" as="targetPoint" />
          </mxGeometry>
        </mxCell>
        <mxCell id="WLKQ_UbRHuhdr7FNFKrX-19" value="N" style="resizable=0;html=1;whiteSpace=wrap;align=right;verticalAlign=bottom;" connectable="0" vertex="1" parent="WLKQ_UbRHuhdr7FNFKrX-18">
          <mxGeometry x="1" relative="1" as="geometry" />
        </mxCell>
        <mxCell id="WLKQ_UbRHuhdr7FNFKrX-20" value="" style="endArrow=none;html=1;rounded=0;exitX=0.5;exitY=1;exitDx=0;exitDy=0;entryX=0.5;entryY=0;entryDx=0;entryDy=0;" edge="1" parent="1" source="WLKQ_UbRHuhdr7FNFKrX-9" target="WLKQ_UbRHuhdr7FNFKrX-2">
          <mxGeometry relative="1" as="geometry">
            <mxPoint x="530" y="210" as="sourcePoint" />
            <mxPoint x="690" y="210" as="targetPoint" />
          </mxGeometry>
        </mxCell>
        <mxCell id="WLKQ_UbRHuhdr7FNFKrX-21" value="1" style="resizable=0;html=1;whiteSpace=wrap;align=right;verticalAlign=bottom;" connectable="0" vertex="1" parent="WLKQ_UbRHuhdr7FNFKrX-20">
          <mxGeometry x="1" relative="1" as="geometry" />
        </mxCell>
        <mxCell id="WLKQ_UbRHuhdr7FNFKrX-22" value="" style="endArrow=none;html=1;rounded=0;exitX=0.5;exitY=0;exitDx=0;exitDy=0;entryX=0.5;entryY=1;entryDx=0;entryDy=0;" edge="1" parent="1" source="WLKQ_UbRHuhdr7FNFKrX-9" target="WLKQ_UbRHuhdr7FNFKrX-1">
          <mxGeometry relative="1" as="geometry">
            <mxPoint x="470" y="190" as="sourcePoint" />
            <mxPoint x="630" y="190" as="targetPoint" />
          </mxGeometry>
        </mxCell>
        <mxCell id="WLKQ_UbRHuhdr7FNFKrX-23" value="N" style="resizable=0;html=1;whiteSpace=wrap;align=right;verticalAlign=bottom;" connectable="0" vertex="1" parent="WLKQ_UbRHuhdr7FNFKrX-22">
          <mxGeometry x="1" relative="1" as="geometry">
            <mxPoint y="20" as="offset" />
          </mxGeometry>
        </mxCell>
        <mxCell id="WLKQ_UbRHuhdr7FNFKrX-24" value="" style="endArrow=none;html=1;rounded=0;exitX=0.5;exitY=0;exitDx=0;exitDy=0;entryX=0.5;entryY=1;entryDx=0;entryDy=0;" edge="1" parent="1" source="WLKQ_UbRHuhdr7FNFKrX-6" target="WLKQ_UbRHuhdr7FNFKrX-2">
          <mxGeometry relative="1" as="geometry">
            <mxPoint x="470" y="370" as="sourcePoint" />
            <mxPoint x="630" y="370" as="targetPoint" />
          </mxGeometry>
        </mxCell>
        <mxCell id="WLKQ_UbRHuhdr7FNFKrX-25" value="1" style="resizable=0;html=1;whiteSpace=wrap;align=right;verticalAlign=bottom;" connectable="0" vertex="1" parent="WLKQ_UbRHuhdr7FNFKrX-24">
          <mxGeometry x="1" relative="1" as="geometry">
            <mxPoint y="20" as="offset" />
          </mxGeometry>
        </mxCell>
        <mxCell id="WLKQ_UbRHuhdr7FNFKrX-26" value="" style="endArrow=none;html=1;rounded=0;exitX=0.5;exitY=1;exitDx=0;exitDy=0;entryX=0.5;entryY=0;entryDx=0;entryDy=0;" edge="1" parent="1" source="WLKQ_UbRHuhdr7FNFKrX-6" target="WLKQ_UbRHuhdr7FNFKrX-3">
          <mxGeometry relative="1" as="geometry">
            <mxPoint x="510" y="420" as="sourcePoint" />
            <mxPoint x="670" y="420" as="targetPoint" />
          </mxGeometry>
        </mxCell>
        <mxCell id="WLKQ_UbRHuhdr7FNFKrX-27" value="N" style="resizable=0;html=1;whiteSpace=wrap;align=right;verticalAlign=bottom;" connectable="0" vertex="1" parent="WLKQ_UbRHuhdr7FNFKrX-26">
          <mxGeometry x="1" relative="1" as="geometry" />
        </mxCell>
        <mxCell id="WLKQ_UbRHuhdr7FNFKrX-28" value="搜索" style="shape=rhombus;perimeter=rhombusPerimeter;whiteSpace=wrap;html=1;align=center;" vertex="1" parent="1">
          <mxGeometry x="210" y="180" width="80" height="50" as="geometry" />
        </mxCell>
        <mxCell id="WLKQ_UbRHuhdr7FNFKrX-29" value="" style="endArrow=none;html=1;rounded=0;entryX=0.5;entryY=0;entryDx=0;entryDy=0;exitX=0;exitY=1;exitDx=0;exitDy=0;" edge="1" parent="1" source="WLKQ_UbRHuhdr7FNFKrX-28" target="WLKQ_UbRHuhdr7FNFKrX-4">
          <mxGeometry relative="1" as="geometry">
            <mxPoint x="40" y="200" as="sourcePoint" />
            <mxPoint x="200" y="200" as="targetPoint" />
          </mxGeometry>
        </mxCell>
        <mxCell id="WLKQ_UbRHuhdr7FNFKrX-30" value="1" style="resizable=0;html=1;whiteSpace=wrap;align=right;verticalAlign=bottom;" connectable="0" vertex="1" parent="WLKQ_UbRHuhdr7FNFKrX-29">
          <mxGeometry x="1" relative="1" as="geometry">
            <mxPoint x="15" y="-20" as="offset" />
          </mxGeometry>
        </mxCell>
        <mxCell id="WLKQ_UbRHuhdr7FNFKrX-31" value="" style="endArrow=none;html=1;rounded=0;exitX=1;exitY=0;exitDx=0;exitDy=0;entryX=0;entryY=0.5;entryDx=0;entryDy=0;" edge="1" parent="1" source="WLKQ_UbRHuhdr7FNFKrX-28" target="WLKQ_UbRHuhdr7FNFKrX-1">
          <mxGeometry relative="1" as="geometry">
            <mxPoint x="290" y="120" as="sourcePoint" />
            <mxPoint x="340" y="130" as="targetPoint" />
          </mxGeometry>
        </mxCell>
        <mxCell id="WLKQ_UbRHuhdr7FNFKrX-32" value="N" style="resizable=0;html=1;whiteSpace=wrap;align=right;verticalAlign=bottom;" connectable="0" vertex="1" parent="WLKQ_UbRHuhdr7FNFKrX-31">
          <mxGeometry x="1" relative="1" as="geometry">
            <mxPoint x="-20" y="10" as="offset" />
          </mxGeometry>
        </mxCell>
        <mxCell id="WLKQ_UbRHuhdr7FNFKrX-34" value="播放、下载" style="shape=rhombus;perimeter=rhombusPerimeter;whiteSpace=wrap;html=1;align=center;" vertex="1" parent="1">
          <mxGeometry x="220" y="340" width="80" height="50" as="geometry" />
        </mxCell>
        <mxCell id="WLKQ_UbRHuhdr7FNFKrX-35" value="" style="endArrow=none;html=1;rounded=0;entryX=0.5;entryY=1;entryDx=0;entryDy=0;exitX=0;exitY=0;exitDx=0;exitDy=0;" edge="1" parent="1" source="WLKQ_UbRHuhdr7FNFKrX-34" target="WLKQ_UbRHuhdr7FNFKrX-4">
          <mxGeometry relative="1" as="geometry">
            <mxPoint x="60" y="350" as="sourcePoint" />
            <mxPoint x="220" y="350" as="targetPoint" />
          </mxGeometry>
        </mxCell>
        <mxCell id="WLKQ_UbRHuhdr7FNFKrX-36" value="1" style="resizable=0;html=1;whiteSpace=wrap;align=right;verticalAlign=bottom;" connectable="0" vertex="1" parent="WLKQ_UbRHuhdr7FNFKrX-35">
          <mxGeometry x="1" relative="1" as="geometry">
            <mxPoint x="15" y="40" as="offset" />
          </mxGeometry>
        </mxCell>
        <mxCell id="WLKQ_UbRHuhdr7FNFKrX-37" value="" style="endArrow=none;html=1;rounded=0;exitX=1;exitY=1;exitDx=0;exitDy=0;entryX=0;entryY=0.5;entryDx=0;entryDy=0;" edge="1" parent="1" source="WLKQ_UbRHuhdr7FNFKrX-34" target="WLKQ_UbRHuhdr7FNFKrX-3">
          <mxGeometry relative="1" as="geometry">
            <mxPoint x="320" y="490" as="sourcePoint" />
            <mxPoint x="480" y="490" as="targetPoint" />
          </mxGeometry>
        </mxCell>
        <mxCell id="WLKQ_UbRHuhdr7FNFKrX-38" value="N" style="resizable=0;html=1;whiteSpace=wrap;align=right;verticalAlign=bottom;" connectable="0" vertex="1" parent="WLKQ_UbRHuhdr7FNFKrX-37">
          <mxGeometry x="1" relative="1" as="geometry">
            <mxPoint x="-20" y="-10" as="offset" />
          </mxGeometry>
        </mxCell>
      </root>
    </mxGraphModel>
  </diagram>
</mxfile>
